# xmcd CD database file
#
# Track frame offsets:
#	150
#	20390
#	34722
#	47386
#	56023
#	76087
#	90970
#	101910
#	120754
#	133850
#	145749
#	167377
#	177671
#	192558
#	204208
#	216314
#	229458
#	240900
#	250911
#	260636
#	276878
#
# Disc length: 3881 seconds
#
# Revision: 2
# Processed by: cddbd v1.5.2PL0 Copyright (c) Steve Scherf et al.
# Submitted via: CDex 1.70beta2
#
DISCID=1e0f2715
DTITLE=Juan Cruz - Light of the Midnight Sky
DYEAR=2000
DGENRE=Native American
TTITLE0=Light of a Midnight Sky
TTITLE1=Thee Anointing
TTITLE2=A Story Once Told
TTITLE3=The Messenger
TTITLE4=Cleansing Rains
TTITLE5=A Seekers Will
TTITLE6=Returning to the Source
TTITLE7=Rain of Hope
TTITLE8=Our Forseeing Forefathers
TTITLE9=Rise of the Fallen
TTITLE10=With a New Days Dawning
TTITLE11=A Returning Dream
TTITLE12=At a Given Moment
TTITLE13=Whispers of the Heart
TTITLE14=At Lake Texcoco
TTITLE15=The Great Ones
TTITLE16=A Descending Passed
TTITLE17=At the Crossing
TTITLE18=Village Talk
TTITLE19=Surrendering Souls
TTITLE20=As I Woke
EXTD=YEAR: 2000
EXTT0=
EXTT1=
EXTT2=
EXTT3=
EXTT4=
EXTT5=
EXTT6=
EXTT7=
EXTT8=
EXTT9=
EXTT10=
EXTT11=
EXTT12=
EXTT13=
EXTT14=
EXTT15=
EXTT16=
EXTT17=
EXTT18=
EXTT19=
EXTT20=
PLAYORDER=
